<svg width="16" height="16" viewBox="0 0 16 16" fill="none" xmlns="http://www.w3.org/2000/svg">
<path d="M11.333 11.3266C10.433 11.3266 9.86634 11.6066 9.36634 11.8599C8.93301 12.0799 8.57967 12.2599 7.99967 12.2599C7.39967 12.2599 7.06634 12.0933 6.63301 11.8599C6.13301 11.6066 5.58634 11.3266 4.66634 11.3266C3.74634 11.3266 3.19967 11.6066 2.69967 11.8599C2.41301 12.0066 2.15967 12.1333 1.85301 12.2066C1.55301 12.2733 1.33301 12.5133 1.33301 12.8133V12.8799C1.33301 13.2799 1.70634 13.5666 2.09301 13.4866C2.58634 13.3866 2.95967 13.1999 3.29967 13.0266C3.73301 12.8066 4.07967 12.6266 4.66634 12.6266C5.25301 12.6266 5.59967 12.7933 6.03301 13.0266C6.53301 13.2799 7.07967 13.5599 7.99967 13.5599C8.91967 13.5599 9.46634 13.2799 9.96634 13.0266C10.3997 12.8066 10.753 12.6266 11.333 12.6266C11.933 12.6266 12.2663 12.7933 12.6997 13.0266C13.0463 13.1999 13.4197 13.3933 13.9197 13.4933C14.0097 13.5109 14.1026 13.5084 14.1916 13.4862C14.2806 13.464 14.3637 13.4224 14.4349 13.3646C14.5061 13.3067 14.5638 13.2339 14.6038 13.1513C14.6437 13.0687 14.6651 12.9784 14.6663 12.8866V12.8266C14.6663 12.5199 14.4397 12.2799 14.1397 12.2133C13.833 12.1466 13.5863 12.0199 13.2997 11.8666C12.7997 11.6066 12.233 11.3266 11.333 11.3266V11.3266ZM11.333 8.35994C10.433 8.35994 9.86634 8.64661 9.36634 8.89327C8.93301 9.10661 8.57967 9.29327 7.99967 9.29327C7.39967 9.29327 7.06634 9.12661 6.63301 8.89327C6.13301 8.63994 5.58634 8.35994 4.66634 8.35994C3.74634 8.35994 3.19967 8.64661 2.69967 8.89327C2.41301 9.03327 2.15967 9.16661 1.84634 9.23994C1.55301 9.30661 1.33301 9.54661 1.33301 9.84661V9.91327C1.33305 10.0054 1.35362 10.0964 1.39324 10.1796C1.43286 10.2628 1.49052 10.3361 1.56204 10.3942C1.63356 10.4523 1.71712 10.4938 1.80667 10.5155C1.89621 10.5372 1.98947 10.5388 2.07967 10.5199C2.57967 10.4199 2.95301 10.2266 3.29967 10.0599C3.73301 9.82661 4.06634 9.65994 4.66634 9.65994C5.26634 9.65994 5.59967 9.82661 6.03301 10.0599C6.53301 10.3133 7.07967 10.5933 7.99967 10.5933C8.91967 10.5933 9.46634 10.3066 9.96634 10.0599C10.3997 9.82661 10.733 9.65994 11.333 9.65994C11.933 9.65994 12.2663 9.82661 12.6997 10.0599C13.0463 10.2333 13.4197 10.4266 13.9197 10.5266C14.0103 10.5443 14.1037 10.5417 14.1932 10.5191C14.2827 10.4965 14.3661 10.4544 14.4374 10.3958C14.5088 10.3372 14.5663 10.2635 14.6059 10.1801C14.6454 10.0967 14.6661 10.0056 14.6663 9.91327V9.85327C14.6663 9.54661 14.4397 9.30661 14.1397 9.23994C13.833 9.17327 13.5863 9.04661 13.2997 8.89327C12.7997 8.63994 12.233 8.35994 11.333 8.35994V8.35994ZM13.2997 2.97327C12.7997 2.71994 12.2463 2.43994 11.333 2.43994C10.4197 2.43994 9.86634 2.71994 9.36634 2.97327C8.93301 3.18661 8.57967 3.37327 7.99967 3.37327C7.39967 3.37327 7.06634 3.20661 6.63301 2.97327C6.13301 2.72661 5.58634 2.43994 4.66634 2.43994C3.74634 2.43994 3.19967 2.71994 2.69967 2.97327C2.41301 3.11994 2.15967 3.24661 1.85301 3.31994C1.55301 3.38661 1.33301 3.62661 1.33301 3.92661V3.97327C1.33301 4.37327 1.69301 4.66661 2.07967 4.58661C2.57967 4.48661 2.95301 4.29327 3.29967 4.12661C3.73301 3.90661 4.07967 3.72661 4.66634 3.72661C5.25301 3.72661 5.59967 3.89327 6.03301 4.12661C6.53301 4.37994 7.07967 4.65994 7.99967 4.65994C8.91967 4.65994 9.46634 4.37327 9.96634 4.12661C10.3997 3.91327 10.753 3.72661 11.333 3.72661C11.933 3.72661 12.2663 3.89327 12.6997 4.12661C13.0463 4.29994 13.4197 4.49327 13.9197 4.59327C14.0103 4.61095 14.1037 4.60839 14.1932 4.58578C14.2827 4.56316 14.3661 4.52105 14.4374 4.46245C14.5088 4.40385 14.5663 4.33021 14.6059 4.2468C14.6454 4.16339 14.6661 4.07226 14.6663 3.97994V3.91994C14.6663 3.61327 14.4397 3.37327 14.1397 3.30661C13.833 3.23994 13.5863 3.11994 13.2997 2.97327V2.97327ZM11.333 5.39327C10.433 5.39327 9.86634 5.67994 9.36634 5.92661C8.93301 6.15994 8.59967 6.32661 7.99967 6.32661C7.39967 6.32661 7.06634 6.15994 6.63301 5.92661C6.13301 5.67327 5.58634 5.39327 4.66634 5.39327C3.74634 5.39327 3.19967 5.67994 2.69967 5.92661C2.41301 6.07994 2.16634 6.20661 1.85967 6.27327C1.55967 6.33994 1.33301 6.57994 1.33301 6.88661V6.94661C1.33305 7.03875 1.35362 7.12973 1.39324 7.21293C1.43286 7.29612 1.49052 7.36944 1.56204 7.42754C1.63356 7.48565 1.71712 7.52708 1.80667 7.54883C1.89621 7.57058 1.98947 7.5721 2.07967 7.55327C2.57967 7.45327 2.95301 7.25994 3.29967 7.09327C3.73301 6.87994 4.08634 6.69327 4.66634 6.69327C5.24634 6.69327 5.59967 6.85994 6.03301 7.09327C6.53301 7.34661 7.07967 7.62661 7.99967 7.62661C8.91967 7.62661 9.46634 7.33994 9.96634 7.09327C10.3997 6.87994 10.753 6.69327 11.333 6.69327C11.933 6.69327 12.2663 6.85994 12.6997 7.09327C13.0463 7.26661 13.4197 7.45994 13.9197 7.55994C14.0097 7.57752 14.1026 7.57511 14.1916 7.55287C14.2806 7.53063 14.3637 7.48911 14.4349 7.43125C14.5061 7.37338 14.5638 7.30058 14.6038 7.21799C14.6437 7.1354 14.6651 7.04503 14.6663 6.95327V6.89327C14.6663 6.58661 14.4397 6.34661 14.1397 6.27994C13.833 6.21327 13.5863 6.08661 13.2997 5.93327C12.7997 5.67327 12.233 5.39327 11.333 5.39327V5.39327Z" fill="url(#paint0_linear_177_207)"/>
<defs>
<linearGradient id="paint0_linear_177_207" x1="7.99967" y1="2.43994" x2="7.99967" y2="13.5599" gradientUnits="userSpaceOnUse">
<stop stop-color="#FFBF00"/>
<stop offset="1" stop-color="#F2A50C"/>
</linearGradient>
</defs>
</svg>
