<svg width="16" height="16" viewBox="0 0 16 16" fill="none" xmlns="http://www.w3.org/2000/svg">
<g clip-path="url(#clip0_177_203)">
<path d="M12.6667 4.66663H12.12L10.9867 1.54663C10.8928 1.28936 10.7224 1.06706 10.4983 0.909704C10.2742 0.752347 10.0072 0.667507 9.73333 0.666626H8.66667C8.3 0.666626 8 0.966626 8 1.33329C8 1.69996 8.3 1.99996 8.66667 1.99996H9.73333L10.7067 4.66663H7.5L7.26 3.99996H7.32C7.68667 3.99996 7.98667 3.69996 7.98667 3.33329C7.98667 2.96663 7.68667 2.66663 7.32 2.66663H5.33333C4.96667 2.66663 4.66667 2.96663 4.66667 3.33329C4.66667 3.69996 4.96667 3.99996 5.33333 3.99996H5.83333L7.04667 7.33329H6.6C6.30667 5.84663 5.06 4.74663 3.5 4.67329C1.63333 4.57996 0 6.13329 0 7.99996C0 9.86663 1.46667 11.3333 3.33333 11.3333C4.97333 11.3333 6.3 10.2066 6.6 8.66663H9.4C9.69333 10.1533 10.94 11.2533 12.5 11.3266C14.3667 11.4133 16 9.86663 16 7.99329C16 6.13329 14.5333 4.66663 12.6667 4.66663ZM4 8.66663H5.21333C4.93333 9.48663 4.14667 10.0533 3.2 9.99329C2.20667 9.93329 1.38 9.09329 1.33333 8.09329C1.28667 6.92663 2.18 5.99996 3.33333 5.99996C4.22 5.99996 4.94667 6.55329 5.21333 7.33329H4C3.63333 7.33329 3.33333 7.63329 3.33333 7.99996C3.33333 8.36663 3.63333 8.66663 4 8.66663ZM9.4 7.33329H8.46667L7.98 5.99996H10C9.70667 6.38663 9.49333 6.83329 9.4 7.33329ZM12.5867 9.99996C11.56 9.95996 10.6933 9.08663 10.6667 8.05329C10.6533 7.41329 10.9267 6.85329 11.3667 6.47996L11.78 7.61329C11.9067 7.95996 12.2867 8.13996 12.6333 8.01329C12.98 7.88663 13.16 7.50663 13.0333 7.15996L12.6133 6.00663L12.62 5.99996C12.8873 5.99085 13.1537 6.03599 13.403 6.13268C13.6524 6.22936 13.8795 6.37558 14.0708 6.5625C14.2621 6.74942 14.4135 6.97316 14.5159 7.22022C14.6183 7.46728 14.6696 7.73253 14.6667 7.99996C14.6667 9.14663 13.7467 10.04 12.5867 9.99996ZM7.33333 13.3333H4.66667L8.66667 15.3333V14H11.3333L7.33333 12V13.3333Z" fill="url(#paint0_linear_177_203)"/>
</g>
<defs>
<linearGradient id="paint0_linear_177_203" x1="8" y1="0.666626" x2="8" y2="15.3333" gradientUnits="userSpaceOnUse">
<stop stop-color="#FFBF00"/>
<stop offset="1" stop-color="#F2A50C"/>
</linearGradient>
<clipPath id="clip0_177_203">
<rect width="16" height="16" fill="white"/>
</clipPath>
</defs>
</svg>
