<svg width="16" height="16" viewBox="0 0 16 16" fill="none" xmlns="http://www.w3.org/2000/svg">
<g clip-path="url(#clip0_177_216)">
<path d="M8.00033 5.33329C6.52699 5.33329 5.33366 6.52663 5.33366 7.99996C5.33366 9.47329 6.52699 10.6666 8.00033 10.6666C9.47366 10.6666 10.667 9.47329 10.667 7.99996C10.667 6.52663 9.47366 5.33329 8.00033 5.33329ZM13.9603 7.33329C13.8093 5.98137 13.2031 4.72098 12.2412 3.75909C11.2793 2.79719 10.0189 2.19097 8.66699 2.03996V1.33329C8.66699 0.966626 8.36699 0.666626 8.00033 0.666626C7.63366 0.666626 7.33366 0.966626 7.33366 1.33329V2.03996C5.98174 2.19097 4.72135 2.79719 3.75945 3.75909C2.79756 4.72098 2.19133 5.98137 2.04033 7.33329H1.33366C0.966992 7.33329 0.666992 7.63329 0.666992 7.99996C0.666992 8.36663 0.966992 8.66663 1.33366 8.66663H2.04033C2.19133 10.0185 2.79756 11.2789 3.75945 12.2408C4.72135 13.2027 5.98174 13.809 7.33366 13.96V14.6666C7.33366 15.0333 7.63366 15.3333 8.00033 15.3333C8.36699 15.3333 8.66699 15.0333 8.66699 14.6666V13.96C10.0189 13.809 11.2793 13.2027 12.2412 12.2408C13.2031 11.2789 13.8093 10.0185 13.9603 8.66663H14.667C15.0337 8.66663 15.3337 8.36663 15.3337 7.99996C15.3337 7.63329 15.0337 7.33329 14.667 7.33329H13.9603V7.33329ZM8.00033 12.6666C5.42033 12.6666 3.33366 10.58 3.33366 7.99996C3.33366 5.41996 5.42033 3.33329 8.00033 3.33329C10.5803 3.33329 12.667 5.41996 12.667 7.99996C12.667 10.58 10.5803 12.6666 8.00033 12.6666Z" fill="url(#paint0_linear_177_216)"/>
</g>
<defs>
<linearGradient id="paint0_linear_177_216" x1="8.00033" y1="0.666626" x2="8.00033" y2="15.3333" gradientUnits="userSpaceOnUse">
<stop stop-color="#FFBF00"/>
<stop offset="1" stop-color="#F2A50C"/>
</linearGradient>
<clipPath id="clip0_177_216">
<rect width="16" height="16" fill="white"/>
</clipPath>
</defs>
</svg>
