<svg width="16" height="16" viewBox="0 0 16 16" fill="none" xmlns="http://www.w3.org/2000/svg">
<path d="M12.9736 6.66667C12.9079 6.76385 12.8689 6.87668 12.8607 6.99373C12.8525 7.11079 12.8754 7.22794 12.927 7.33334C13.0923 7.71934 13.209 8.12467 13.2736 8.54C13.4452 9.61343 13.2847 10.7137 12.8136 11.6933C12.7564 11.8008 12.6709 11.8905 12.5663 11.9528C12.4617 12.0151 12.342 12.0476 12.2203 12.0467H3.78695C3.66453 12.0469 3.54441 12.0135 3.43975 11.95C3.33509 11.8865 3.24993 11.7954 3.19362 11.6867C2.76687 10.821 2.58305 9.85567 2.66174 8.89371C2.74044 7.93175 3.0787 7.00917 3.64047 6.22433C4.20225 5.43949 4.96647 4.82181 5.85168 4.43713C6.73688 4.05245 7.70988 3.9152 8.66695 4.04C9.15121 4.09692 9.62487 4.22263 10.0736 4.41334C10.179 4.46492 10.2962 4.48777 10.4132 4.47957C10.5303 4.47138 10.6431 4.43243 10.7403 4.36667C10.8415 4.29996 10.9227 4.20691 10.975 4.09752C11.0273 3.98813 11.0488 3.86655 11.0371 3.74586C11.0254 3.62517 10.9811 3.50995 10.9088 3.41259C10.8366 3.31523 10.7391 3.23943 10.627 3.19334C9.33908 2.64111 7.90995 2.50873 6.54256 2.815C5.17517 3.12127 3.93905 3.85063 3.00979 4.89946C2.08053 5.94829 1.50539 7.26326 1.36605 8.65759C1.22672 10.0519 1.53028 11.4547 2.23362 12.6667C2.34996 12.8682 2.51701 13.0357 2.71817 13.1527C2.91934 13.2697 3.1476 13.3319 3.38029 13.3333H12.6136C12.8486 13.3343 13.0796 13.2731 13.2833 13.156C13.487 13.039 13.6561 12.8701 13.7736 12.6667C14.2885 11.7743 14.5896 10.7747 14.6532 9.74641C14.7169 8.7181 14.5413 7.68904 14.1403 6.74C14.0895 6.63184 14.0106 6.53932 13.9118 6.47212C13.813 6.40492 13.6979 6.36551 13.5787 6.35801C13.4594 6.35051 13.3403 6.37521 13.2339 6.42951C13.1274 6.48381 13.0376 6.56572 12.9736 6.66667Z" fill="url(#paint0_linear_177_211)"/>
<path d="M7.05969 8.39333C6.8095 8.64352 6.66895 8.98284 6.66895 9.33666C6.66895 9.51185 6.70345 9.68533 6.7705 9.84719C6.83754 10.009 6.93581 10.1561 7.05969 10.28C7.18357 10.4039 7.33063 10.5021 7.49249 10.5692C7.65435 10.6362 7.82783 10.6707 8.00302 10.6707C8.35684 10.6707 8.69617 10.5302 8.94635 10.28L12.7197 4.62L7.05969 8.39333V8.39333Z" fill="url(#paint1_linear_177_211)"/>
<defs>
<linearGradient id="paint0_linear_177_211" x1="7.99949" y1="2.65381" x2="7.99949" y2="13.3333" gradientUnits="userSpaceOnUse">
<stop stop-color="#FFBF00"/>
<stop offset="1" stop-color="#F2A50C"/>
</linearGradient>
<linearGradient id="paint1_linear_177_211" x1="9.69432" y1="4.62" x2="9.69432" y2="10.6707" gradientUnits="userSpaceOnUse">
<stop stop-color="#FFBF00"/>
<stop offset="1" stop-color="#F2A50C"/>
</linearGradient>
</defs>
</svg>
